#!OML:ASF G:\JayActor3\Patient Classification 1\Patient 1\Session 5\male.ASF
:FULLY-SPECIFIED
:DEGREES
1173
root 20.3613 17.1636 -7.66628 -169.78 29.9409 -176.619
lowerback 9.15744 -1.49553 2.36158
upperback 0.519095 -1.70475 -0.0809768
thorax -4.66893 -0.873918 -1.19116
lowerneck 0.575369 0.341876 1.69148
upperneck 0.385631 0.500164 2.53833
head 0.0203627 0.268251 0.489811
rclavicle -4.29375e-014 1.90833e-014
rhumerus -34.1644 -10.6115 -84.8039
rradius 18.1202
rwrist 16.6574
rhand -21.8778 -5.56926
rfingers 7.12502
rthumb 4.52677 -35.5009
lclavicle -4.29375e-014 1.90833e-014
lhumerus -33.4537 -29.0221 106.778
lradius 4.77849
lwrist 55.038
lhand -30.4773 13.9438
lfingers 7.12502
lthumb -3.77838 43.8901
rfemur -16.9701 9.65659 28.5352
rtibia 30.3257
rfoot -18.954 -11.4009
rtoes 4.44313
lfemur -6.97978 7.92826 -17.1331
ltibia 33.0403
lfoot -6.89084 2.58319
ltoes -17.227
1174
root 20.4839 17.16 -7.85117 -169.846 29.733 -176.495
lowerback 9.17075 -1.50878 2.57237
upperback 0.545752 -1.69547 -0.0163495
thorax -4.65257 -0.87187 -1.24374
lowerneck 0.575108 0.27185 1.63158
upperneck 0.421957 0.405294 2.57256
head 0.0316149 0.221257 0.510164
rclavicle -6.4605e-014 8.34896e-015
rhumerus -34.1276 -10.568 -84.8322
rradius 18.1079
rwrist 16.6398
rhand -21.8858 -5.56114
rfingers 7.12502
rthumb 4.51903 -35.4929
lclavicle -6.4605e-014 8.34896e-015
lhumerus -33.587 -29.2017 106.976
lradius 4.77522
lwrist 55.3396
lhand -30.4922 13.919
lfingers 7.12502
lthumb -3.79278 43.865
rfemur -15.7048 9.84014 28.804
rtibia 28.7482
rfoot -18.8216 -11.3107
rtoes 4.74891
lfemur -8.3848 7.78434 -16.8947
ltibia 35.0266
lfoot -6.95646 2.50141
ltoes -17.2537
1175
root 20.6075 17.1557 -8.03683 -169.918 29.5259 -176.377
lowerback 9.18397 -1.51929 2.77324
upperback 0.572953 -1.68343 0.048001
thorax -4.63515 -0.868091 -1.29139
lowerneck 0.57362 0.200565 1.56971
upperneck 0.45931 0.308661 2.60739
head 0.043482 0.173398 0.531038
rclavicle -7.15625e-015 2.18663e-014
rhumerus -34.081 -10.5146 -84.8682
rradius 18.1013
rwrist 16.6085
rhand -21.8939 -5.55299
rfingers 7.12502
rthumb 4.5112 -35.485
lclavicle -7.15625e-015 2.18663e-014
lhumerus -33.7346 -29.384 107.183
lradius 4.76435
lwrist 55.658
lhand -30.4897 13.8898
lfingers 7.12502
lthumb -3.79041 43.8358
rfemur -14.4521 9.99404 29.0887
rtibia 27.3157
rfoot -18.6381 -11.2272
rtoes 5.00652
lfemur -9.787 7.63021 -16.6639
ltibia 36.8665
lfoot -7.03091 2.38067
ltoes -17.2454
1176
root 20.7322 17.1504 -8.2232 -169.995 29.3243 -176.265
lowerback 9.197 -1.52642 2.96049
upperback 0.600053 -1.66823 0.111189
thorax -4.61717 -0.862355 -1.33302
lowerneck 0.571688 0.128613 1.50942
upperneck 0.498303 0.211102 2.64129
head 0.0560293 0.125108 0.551378
rclavicle 1.88845e-015 -1.66979e-014
rhumerus -34.0266 -10.4501 -84.9129
rradius 18.1014
rwrist 16.5627
rhand -21.9074 -5.54586
rfingers 7.12502
rthumb 4.49821 -35.4781
lclavicle 1.88845e-015 -1.66979e-014
lhumerus -33.8946 -29.5673 107.396
lradius 4.74329
lwrist 55.9906
lhand -30.4671 13.8507
lfingers 7.12502
lthumb -3.76854 43.7971
rfemur -13.2411 10.1081 29.3877
rtibia 26.07
rfoot -18.4094 -11.1476
rtoes 5.19861
lfemur -11.1658 7.46615 -16.4412
ltibia 38.5411
lfoot -7.12059 2.21996
ltoes -17.1717
1177
root 20.8579 17.1444 -8.41039 -170.077 29.1339 -176.163
lowerback 9.20837 -1.52987 3.13264
upperback 0.626337 -1.64983 0.171812
thorax -4.59853 -0.85467 -1.36928
lowerneck 0.569568 0.0569016 1.44804
upperneck 0.53919 0.113809 2.67564
head 0.0692805 0.0769801 0.572044
rclavicle 7.196e-014 -9.54166e-015
rhumerus -33.9663 -10.3749 -84.9658
rradius 18.1081
rwrist 16.5075
rhand -21.9283 -5.53916
rfingers 7.12502
rthumb 4.47796 -35.4718
lclavicle 7.196e-014 -9.54166e-015
lhumerus -34.0656 -29.7474 107.612
lradius 4.71524
lwrist 56.3303
lhand -30.4294 13.8144
lfingers 7.12502
lthumb -3.73211 43.7615
rfemur -12.1 10.175 29.6945
rtibia 25.0479
rfoot -18.1474 -11.057
rtoes 5.36763
lfemur -12.5069 7.29212 -16.2311
ltibia 40.0334
lfoot -7.2358 2.02893
ltoes -17.0392
1178
root 20.9845 17.1381 -8.59849 -170.166 28.9586 -176.07
lowerback 9.21951 -1.52919 3.28923
upperback 0.652234 -1.62776 0.227825
thorax -4.5796 -0.844841 -1.40207
lowerneck 0.567111 -0.0146172 1.38975
upperneck 0.581697 0.0167647 2.70867
head 0.0831804 0.0290165 0.591808
rclavicle -1.92821e-014 7.95139e-015
rhumerus -33.9005 -10.2947 -85.0253
rradius 18.122
rwrist 16.4403
rhand -21.9503 -5.53232
rfingers 7.12502
rthumb 4.45672 -35.4654
lclavicle -1.92821e-014 7.95139e-015
lhumerus -34.2447 -29.9248 107.827
lradius 4.67778
lwrist 56.6744
lhand -30.3757 13.7727
lfingers 7.12502
lthumb -3.68023 43.7207
rfemur -11.0487 10.1859 30.0045
rtibia 24.2764
rfoot -17.856 -10.9509
rtoes 5.53962
lfemur -13.7963 7.11081 -16.0357
ltibia 41.3268
lfoot -7.37719 1.81296
ltoes -16.8448
